<?xml version="1.0" standalone="no"?>
<!DOCTYPE svg PUBLIC "-//W3C//DTD SVG 20010904//EN"
 "http://www.w3.org/TR/2001/REC-SVG-20010904/DTD/svg10.dtd">
<svg version="1.0" xmlns="http://www.w3.org/2000/svg"
 width="1280.000000pt" height="1016.000000pt" viewBox="0 0 1280.000000 1016.000000"
 preserveAspectRatio="xMidYMid meet">
<metadata>
Created by potrace 1.15, written by Peter Selinger 2001-2017
</metadata>
<g transform="translate(0.000000,1016.000000) scale(0.100000,-0.100000)"
fill="#2196f3" stroke="none">
<path d="M5360 9859 l-425 -302 -92 -143 c-79 -124 -95 -157 -117 -236 -37
-140 -56 -175 -140 -257 -69 -68 -79 -84 -112 -169 -20 -51 -73 -166 -118
-255 -70 -138 -100 -185 -204 -315 -155 -195 -223 -291 -302 -422 -94 -157
-133 -252 -205 -506 -19 -67 -46 -156 -60 -197 -37 -112 -52 -196 -64 -357 -6
-80 -16 -210 -22 -290 -11 -156 -48 -391 -75 -480 -20 -68 -67 -162 -152 -305
-36 -60 -75 -132 -87 -158 -13 -26 -30 -56 -39 -66 -9 -10 -35 -81 -57 -157
-37 -126 -41 -146 -36 -214 3 -41 -1 -151 -9 -245 -9 -108 -18 -397 -24 -790
-9 -648 -10 -662 -59 -852 -67 -262 -264 -715 -436 -1000 -30 -51 -55 -97 -55
-102 0 -6 118 -103 263 -217 144 -114 316 -251 382 -304 l120 -96 195 -37
c281 -52 616 -103 833 -127 231 -24 336 -45 547 -109 91 -27 237 -67 325 -89
88 -22 237 -67 330 -100 l170 -61 300 -12 c487 -19 817 -4 1135 52 220 38 539
114 750 179 84 26 133 32 430 55 l335 27 243 69 c390 112 517 158 762 280 227
113 415 241 728 497 l103 84 -6 152 c-18 479 -47 777 -91 936 -22 79 -35 154
-64 370 -61 443 -90 538 -363 1160 -181 414 -247 605 -247 716 0 151 -49 300
-260 794 -178 415 -222 549 -255 775 -18 120 -34 429 -35 647 0 76 -7 188 -16
250 -13 100 -21 123 -61 198 -68 128 -201 318 -484 695 -140 187 -281 385
-312 440 -31 55 -94 183 -139 285 -93 205 -133 272 -175 288 -15 6 -122 43
-238 83 -115 39 -216 76 -223 82 -8 7 -86 7 -230 2 -267 -10 -252 -10 -356 15
-105 25 -262 46 -460 60 -120 8 -462 52 -594 76 -23 4 -93 -42 -452 -297z"/>
</g>
</svg>
